<svg width="29" height="29" viewBox="0 0 29 29" fill="none" xmlns="http://www.w3.org/2000/svg">
<path d="M12.0666 11.9167H7.3999" stroke="#00D492" stroke-width="2.33333" stroke-linecap="round" stroke-linejoin="round"/>
<path d="M16.7332 21.25V7.25C16.7332 6.63116 16.4873 6.03767 16.0497 5.60009C15.6122 5.1625 15.0187 4.91667 14.3998 4.91667H5.06649C4.44765 4.91667 3.85416 5.1625 3.41657 5.60009C2.97899 6.03767 2.73315 6.63116 2.73315 7.25V20.0833C2.73315 20.3928 2.85607 20.6895 3.07486 20.9083C3.29366 21.1271 3.5904 21.25 3.89982 21.25H6.23315" stroke="#00D492" stroke-width="2.33333" stroke-linecap="round" stroke-linejoin="round"/>
<path d="M22.5665 21.25H24.8998C25.2092 21.25 25.506 21.1271 25.7248 20.9083C25.9436 20.6895 26.0665 20.3928 26.0665 20.0833V16.2567C26.0663 16.0119 25.9891 15.7734 25.8459 15.5749C25.7027 15.3764 25.5007 15.228 25.2685 15.1507L23.025 14.4028C22.8796 14.3543 22.7453 14.2776 22.6296 14.1771C22.5139 14.0766 22.4191 13.9543 22.3507 13.8172L20.5552 10.2285C20.4583 10.0347 20.3095 9.87176 20.1253 9.75781C19.9411 9.64387 19.7288 9.58345 19.5122 9.58334H16.7332" stroke="#00D492" stroke-width="2.33333" stroke-linecap="round" stroke-linejoin="round"/>
<path d="M9.73315 9.58334V14.25" stroke="#00D492" stroke-width="2.33333" stroke-linecap="round" stroke-linejoin="round"/>
<path d="M10.8999 21.25H17.8999" stroke="#00D492" stroke-width="2.33333" stroke-linecap="round" stroke-linejoin="round"/>
<path d="M20.2332 23.5833C21.5219 23.5833 22.5666 22.5387 22.5666 21.25C22.5666 19.9613 21.5219 18.9167 20.2332 18.9167C18.9446 18.9167 17.8999 19.9613 17.8999 21.25C17.8999 22.5387 18.9446 23.5833 20.2332 23.5833Z" stroke="#00D492" stroke-width="2.33333" stroke-linecap="round" stroke-linejoin="round"/>
<path d="M8.56649 23.5833C9.85515 23.5833 10.8998 22.5387 10.8998 21.25C10.8998 19.9613 9.85515 18.9167 8.56649 18.9167C7.27782 18.9167 6.23315 19.9613 6.23315 21.25C6.23315 22.5387 7.27782 23.5833 8.56649 23.5833Z" stroke="#00D492" stroke-width="2.33333" stroke-linecap="round" stroke-linejoin="round"/>
</svg>
